<svg id="Logo" xmlns="http://www.w3.org/2000/svg" viewBox="0 0 626.4 803.73"><defs></defs><title>SIB Logo - minimalist version</title><path fill="#ffb71b" class="cls-1" d="M203.1,238.28c4.92-5.64,1.13-2.45,6.93-1.21,9,1.94,18-13.83,8.48-15.21-5.45-.79-13.39,9-20.75,7.17-16.83-4.13,2.58-31.38,15-19.42l-3,3.33c-7.54-6.3-17.47,5.8-13,10.47,5.12,5.32,13.88-8,22.8-6.1a9.33,9.33,0,0,1,7,7.49C228.59,234.7,213,248,203.1,238.28Zm43-24.07-19.65-23.9c-10.71,8.81-8.05,8.41-11.55,4.14l21.47-17.65c3.51,4.26,4.43,1.72-6.33,10.56l19.64,23.9Zm14-11.52c-12.34-49-17.13-47,26.84-18.89-5.45,3.83-2.43,4.31-13.78-3.29l-12,8.44C264.68,202,265.13,199.12,260.06,202.69Zm0-17.6,9.73-6.85c-19.41-13.19-14.75-12.21-12.5-3.78Zm38.49-8.18-15.79-26.6c-11.92,7.08-9.23,7.08-12.05,2.34l23.91-14.19c2.82,4.74,4.11,2.37-7.86,9.48l15.79,26.6ZM321.71,164l-15.87-31.27,4.14-2.1,15.87,31.27Zm9.79-17.59c6.63-3.51,1.88-1.92,6.89,1.36,7.7,5,21.82-6.42,13.39-11.15-4.81-2.7-15.73,3.56-21.95-.77-14.12-9.82,13.67-28.38,21-12.72l-4,2c-4.77-8.59-18.39-.86-15.87,5.11,2.87,6.81,15.84-2.48,23.47,2.5a9.36,9.36,0,0,1,3.86,9.52C356.57,152.21,337.22,159,331.5,146.4Zm48.62-6.75-9.37-29.48c-13.22,4.2-10.6,4.82-12.27-.44L385,101.31c1.68,5.26,3.47,3.24-9.8,7.46l9.37,29.48Zm25.45-7.3-8.32-34.07,4.51-1.1,8.32,34.07ZM445.16,112l4.77.4c-1.57,18.41-28,20.87-31.68-1.49C414.77,90.07,439.79,83.41,447,98.38l-4.33,1.81c-5.25-10.24-18.28-5.77-19.71,3.1C419.29,125.94,444.36,128.6,445.16,112Zm12.63,10.64c14.81-48.32,9.68-49.09,32.75-2.27-6.65.46-4.32,2.43-10.1-10l-14.63,1C462.08,124.49,464,122.23,457.79,122.66Zm9.1-15.07,11.86-.82c-9.77-21.34-6.3-18.08-8.73-9.71Zm31.58,12.84L499,85.36l4.64.07-.49,30.93,17.28.28-.07,4.14Zm49.73,2.88,4.43-34.79,4.6.58-4.42,34.8Zm17.24,2.24,7-34.37c6.23,1.27,2.63-4,17.23,31.61l5.49-27,4.36.89-7,34.37c-6.23-1.27-2.64,4-17.23-31.63l-5.49,27Zm40.48-2.72c7.33,1.56,2.67-.25,4.42,5.47,2.69,8.82,20.84,9,17.42,0-2-5.12-14.36-7.36-16.35-14.65-4.57-16.71,28.67-13,24.27,3.7l-4.35-1c1.84-9.63-13.55-12.46-15.45-6.25-2.16,7.06,13.74,8.25,16.4,17a9.34,9.34,0,0,1-3.14,9.78C621.43,143.37,602.23,136.17,605.92,122.83Zm41.69,26,11.63-28.67c-12.85-5.21-11.23-3.07-9.15-8.18l25.76,10.45c-2.07,5.12.6,4.71-12.31-.53l-11.63,28.67Zm24.29,10.63,15.3-31.56,4.18,2-15.3,31.56Zm23.48,12.2,15.32-26.88c-12.05-6.86-10.72-4.52-8-9.32l24.16,13.77c-2.74,4.8,0,4.75-12.14-2.15l-15.31,26.88ZM756.09,169l3.8,2.66C746.49,190.78,744,196.55,736,196.12c-5.08-.27-11.38-5-13.45-9.14-3.66-7.34,1.84-12.74,14.77-31.14l3.79,2.67c-12.69,18.07-20.08,24.37-10.87,30.84S741.43,189.91,756.09,169Zm-.23,44.59L776,190.14c-10.53-9-9.67-6.48-6.08-10.67l21.1,18.1c-3.59,4.19-.93,4.65-11.5-4.41l-20.14,23.48Zm18.88,16.86L800,206.16l17.58,18.27-3,2.87-14.36-14.93-7.75,7.45,13.46,14-3,2.86-13.45-14L780.94,231l14.93,15.52-3,2.87Z" transform="translate(-191.2 -85.36)"/><path fill="#ffb71b" class="cls-1" d="M379.63,871.77c0-21.87,24.33-22.85,30.85-9.63,5.69,11.55-.11,27-14.42,27C386.05,889.09,379.63,881.33,379.63,871.77Zm4.68.07c0,17.72,23.49,18.29,23.49-.5C407.8,853,384.31,852.09,384.31,871.84Zm34.27,16.66V854.14h23.18v4.06H423.13v10.64h16.12c0,5.41,3.22,4-16.12,4V888.5Zm42.23,0V854.14H473.7c13,0,14.52,12.15,6.59,16.08,9.43,2.76,8.16,15.42-.83,17.71C476.61,888.65,474.9,888.5,460.81,888.5Zm4.55-19.92c7,0,15.26,1.47,15.26-5.11s-6.74-5.27-15.26-5.27Zm0,15.87c9.19,0,13.89.9,16-3a6.26,6.26,0,0,0-.31-6.23c-2.21-3.19-6.52-2.57-15.7-2.57Zm27.75,4V854.14H518v4.06H497.66v10.52h19c0,5.37,3.8,4-19,4v11.7h21.09v4Zm31.73,0V854.14h4.55v30.31c20.29,0,16.92-1.36,16.92,4Zm27.66,0V854.14h4.55V888.5Zm9.82,0c0-5.62-2.86-.65,17.6-26.23,4.39-5.48,7.91-4.07-15.61-4.07v-4.06c32.82,0,32.38-5.54,5.32,27.89-2.83,3.28-6.49,2.42,19.85,2.42v4Zm32.16,0V854.14h24.84v4.06H599v10.52h19c0,5.37,3.8,4-19,4v11.7h21.1v4Z" transform="translate(-191.2 -85.36)"/><path fill="#ffb71b" class="cls-1" d="M382.28,413c0,77.9,80.52,98.61,124.55,98.67V595c-22.46-1.45-43.54-2.86-61.33-5.4-29.29-4.18-99.35-47.57-99.35-125.24,0-143.77,105.85-166,138.6-166h22.08v15.28H472S382.28,321.14,382.28,413Z" transform="translate(-191.2 -85.36)"/><polygon fill="#ffb71b" class="cls-1" points="287.97 745.08 16.3 745.08 16.3 732.63 286.38 732.63 287.97 745.08"/><path fill="#ffb71b" class="cls-1" d="M580,449.48c0,12.39-3,50.52-3,50.52L534.13,830.44h-27.3V382c1.37,0,2.75-.06,4.17-.06C576,382,580,441.66,580,449.48Z" transform="translate(-191.2 -85.36)"/><path fill="#7f2629" class="cls-2" d="M756,570.63c-53.61-52.51-109.14-59-249-59h-.17V382c-73.83,2.09-73.16,59.44-73.16,67.45,0,32.95,5.24,65.92,45.5,381,101.52,0,108.73,1.27,134-4.31C698.35,807.36,792.38,747,792.38,665,792.38,630.07,780.08,596.92,756,570.63ZM583.25,818H506.83V595c95.47,6.16,216,13.08,216,111C722.83,787.67,615.67,819,583.25,818Z" transform="translate(-191.2 -85.36)"/><path fill="#ffb71b" class="cls-1" d="M502.67,158v61.5h-61.5A61.49,61.49,0,0,1,502.67,158Z" transform="translate(-191.2 -85.36)"/><path fill="#7f2629" class="cls-2" d="M506.67,162a61.5,61.5,0,1,1-61.5,61.5h61.5Z" transform="translate(-191.2 -85.36)"/><path class="cls-2" fill="#7f2629" d="M613.94,306a7.64,7.64,0,0,1-7.64,7.64H506.83V298.36H606.3A7.64,7.64,0,0,1,613.94,306Z" transform="translate(-191.2 -85.36)"/></svg>